<svg xmlns="http://www.w3.org/2000/svg" xmlns:xlink="http://www.w3.org/1999/xlink" version="1.1" x="0px" y="0px" viewBox="0 0 100 125" style="enable-background:new 0 0 100 100;" xml:space="preserve"><circle cx="38.2" cy="18.2" r="0.6"/><circle cx="32.8" cy="18.2" r="0.6"/><circle cx="24.6" cy="26.2" r="0.6"/><circle cx="28.4" cy="26.8" r="0.6"/><circle cx="25.6" cy="30.3" r="0.6"/><circle cx="31.3" cy="14.6" r="0.6"/><circle cx="34.6" cy="14.6" r="0.6"/><circle cx="40.2" cy="14.6" r="0.6"/><circle cx="44.1" cy="18.2" r="0.6"/><circle cx="52.6" cy="26.2" r="0.6"/><circle cx="61.5" cy="18.8" r="0.6"/><circle cx="65.6" cy="16.1" r="0.6"/><circle cx="67.6" cy="18.8" r="0.6"/><circle cx="70.8" cy="16.9" r="0.6"/><circle cx="73.6" cy="20.2" r="0.6"/><circle cx="70.8" cy="27.4" r="0.6"/><circle cx="63.2" cy="26.2" r="0.6"/><circle cx="71.7" cy="34.8" r="0.6"/><path d="M83.2,24.4C82.2,15.7,75.1,8.9,66.4,8C65.8,8,65.2,8,64.6,8c-4.5,0-8.7,1.6-12.1,4.4  c-3.8-4.7-9.6-7.5-15.8-7.5c-0.8,0-1.7,0-2.5,0.1c-9,1.1-16.4,8.4-17.7,17.3c-0.8,5.9,0.9,11.6,4.7,16c0,0,0,0.1,0,0.1l0,35.1  c0,2.7,2.2,4.9,4.9,4.9h1.6h0c0.2,3.8,3.1,7,6.9,7.2c1.8,0.1,3.4-0.4,4.8-1.4v1.2c0,2.6,1.9,4.9,4.5,5.2c3,0.3,5.5-2,5.5-4.9  c0-0.6,0-1.3,0-1.9c-0.1-0.7,0.4-1.2,0.9-1.2c0.5,0,1,0.5,0.9,1.3v8c0,1.5,1.1,2.8,2.5,3c1.7,0.2,3.1-1.2,3.1-2.8v-8  c0-0.7,0.6-1.4,1.4-1.4c0.8,0,1.4,0.6,1.4,1.4v7.9c0,1,0.8,1.7,1.7,1.7c1,0,1.7-0.8,1.7-1.7v-5.1c0.4,0.2,0.8,0.4,1.3,0.4  c1.3,0,2.3-1,2.5-2.3c0.5,0.3,1,0.4,1.5,0.4c1.5-0.1,2.7-1.5,2.7-3v-3.8h0.3c2.7,0,4.9-2.2,4.9-4.9V41.4c0,0,0,0,0,0  C81.5,37.3,84.1,31,83.2,24.4z M31.3,69.1c-1,0-1.8-0.8-1.8-1.8c0-1,0.8-1.8,1.8-1.8c1,0,1.8,0.8,1.8,1.8  C33.2,68.3,32.3,69.1,31.3,69.1z M33.2,62.6c0,1-0.8,1.8-1.8,1.8c-1,0-1.8-0.8-1.8-1.8V41.4c0-1,0.8-1.8,1.8-1.8  c1,0,1.8,0.8,1.8,1.8V62.6z M34.6,36.4c-1.7,0-3-1.4-3-3c0-1.7,1.4-3,3-3c1.7,0,3,1.4,3,3C37.6,35.1,36.2,36.4,34.6,36.4z   M37.9,29.6c0-0.9,0.7-1.5,1.5-1.5c0.9,0,1.5,0.7,1.5,1.5c0,0.9-0.7,1.5-1.5,1.5C38.6,31.1,37.9,30.5,37.9,29.6z M40.2,35.1  c-0.6,0-1.1-0.5-1.1-1.1s0.5-1.1,1.1-1.1s1.1,0.5,1.1,1.1S40.9,35.1,40.2,35.1z M42.4,82.3c0.7,0,1.2,0.6,1.2,1.2  c0,0.7-0.6,1.2-1.2,1.2c-0.7,0-1.2-0.6-1.2-1.2C41.2,82.9,41.7,82.3,42.4,82.3z M46.2,89.2L46.2,89.2c0,0-0.3,0.1-0.8,0.2  c-0.5,0.1-1.2,0.1-1.9,0c-0.2,0-0.4-0.1-0.5-0.2l-0.3-0.1L42.6,89l-0.1-0.1c-0.3-0.2-0.6-0.6-0.8-0.9c-0.2-0.3-0.2-0.7-0.2-0.9  c0-0.1,0-0.2,0-0.3c0-0.1,0-0.1,0-0.1c0.1-0.6,0.6-1,1.1-0.9c0.6,0.1,1,0.6,0.9,1.1c0,0.1,0,0.1,0,0.2l0,0c0,0,0,0,0,0c0,0,0,0,0,0  c0,0,0,0.1-0.1,0.2c0,0.1,0,0.2,0.1,0.4c0,0,0,0.1,0,0l0.1,0.1l0.1,0.1c0.1,0.1,0.2,0.1,0.3,0.2c0.4,0.3,1,0.4,1.4,0.5  c0.4,0.1,0.7,0,0.7,0c0.1,0,0.3,0.1,0.3,0.2C46.4,89,46.3,89.2,46.2,89.2z M60,31.7c-0.1,0-0.2,0-0.2,0c0,0-0.3,0-0.8,0.1  c-0.2,0.1-0.5,0.1-0.8,0.3c-0.3,0.1-0.6,0.3-0.9,0.5c-0.3,0.2-0.5,0.4-0.8,0.7c-0.2,0.2-0.4,0.5-0.6,0.7c-0.2,0.2-0.3,0.4-0.3,0.6  c-0.1,0.1-0.1,0.2-0.1,0.2l0,0c-0.1,0.2-0.4,0.3-0.6,0.2c-0.2-0.1-0.3-0.3-0.2-0.5c0,0,0-0.1,0.1-0.3c0.1-0.2,0.1-0.4,0.3-0.7  c0.1-0.3,0.3-0.6,0.5-1c0.2-0.4,0.5-0.7,0.8-1c0.3-0.3,0.7-0.6,1-0.9c0.4-0.2,0.7-0.4,1-0.6c0.6-0.3,1.1-0.4,1.1-0.4l0.1,0  c0.6-0.1,1.2,0.2,1.3,0.8C61,31,60.6,31.5,60,31.7z M74.7,39.6c-0.6,0.5-0.9,1.2-0.9,1.9v32.1c0,1.4-1.1,2.5-2.5,2.5h-0.3V42.2  c0-2.9-2.4-5.3-5.3-5.3c0.4-1,0.6-2.2,0.4-3.4c0-0.3-0.1-0.7-0.2-1c-0.2-0.5-0.4-1-0.7-1.5c-0.3-0.4-0.5-0.8-0.9-1.1  c-0.2-0.1-0.3-0.3-0.5-0.4c-0.1-0.1-0.2-0.2-0.3-0.2c-0.1-0.1-0.2-0.1-0.4-0.2c-0.2-0.1-0.3-0.2-0.5-0.3c-0.1,0-0.1,0-0.2-0.1  c-0.3-0.1-0.5-0.2-0.8-0.3c-0.2-0.1-0.5-0.1-0.7-0.1c-0.1,0-0.2-0.1-0.3-0.1c0,0,0,0,0,0c0,0,0,0,0,0c-0.2,0-0.5,0-0.7,0  c0,0,0,0,0,0c0,0,0,0,0,0c-0.4,0-0.8,0-1.2,0.1c0,0,0,0-0.1,0c-0.4,0.1-0.7,0.2-1.1,0.3c0,0-0.1,0-0.1,0c-0.3,0.1-0.6,0.3-0.9,0.5  c0,0-0.1,0.1-0.1,0.1c-0.3,0.2-0.6,0.4-0.8,0.7c0,0-0.1,0.1-0.1,0.1c-0.2,0.3-0.5,0.5-0.7,0.8c0,0-0.1,0.1-0.1,0.1  c-0.2,0.3-0.4,0.6-0.5,0.9c0,0,0,0.1-0.1,0.1c-0.1,0.3-0.3,0.7-0.3,1.1c0,0,0,0.1,0,0.1c-0.1,0.4-0.1,0.8-0.1,1.2c0,0.9,0,2.4,0,2.5  h0c0-1.4-1.1-2.5-2.5-2.5c-0.1,0-0.2,0-0.3,0c-0.1-0.3-0.2-0.7-0.3-1c0-0.1-0.1-0.2-0.1-0.3c-0.1-0.2-0.1-0.4-0.2-0.6  c-0.1-0.1-0.1-0.2-0.2-0.4c-0.1-0.2-0.2-0.4-0.3-0.5c-0.1-0.1-0.1-0.3-0.2-0.4c-0.1-0.2-0.2-0.3-0.3-0.5c-0.1-0.1-0.2-0.2-0.2-0.4  c-0.1-0.2-0.2-0.3-0.3-0.5c-0.1-0.1-0.2-0.2-0.3-0.4c-0.1-0.1-0.2-0.3-0.4-0.4c-0.1-0.1-0.2-0.2-0.3-0.3c-0.1-0.1-0.3-0.3-0.4-0.4  c-0.1-0.1-0.2-0.2-0.3-0.3c-0.1-0.1-0.3-0.2-0.4-0.3c-0.1-0.1-0.2-0.2-0.4-0.3c-0.1-0.1-0.3-0.2-0.4-0.3c-0.1-0.1-0.3-0.2-0.4-0.2  c-0.2-0.1-0.3-0.2-0.5-0.3c-0.1-0.1-0.3-0.1-0.4-0.2c-0.2-0.1-0.3-0.2-0.5-0.2c-0.1-0.1-0.3-0.1-0.4-0.2c-0.2-0.1-0.3-0.1-0.5-0.2  c-0.2-0.1-0.3-0.1-0.5-0.1c-0.2-0.1-0.4-0.1-0.5-0.1c-0.2,0-0.3-0.1-0.5-0.1c-0.2,0-0.4-0.1-0.5-0.1c-0.2,0-0.3,0-0.5-0.1  c-0.2,0-0.4,0-0.6,0c-0.2,0-0.3,0-0.5,0c-0.1,0-0.1,0-0.2,0c-0.2,0-0.5,0-0.8,0c-0.1,0-0.2,0-0.3,0c-6.1,0.5-10.7,5.9-10.7,12  c0,0,0,0,0,0V76h-1.6c-1.4,0-2.5-1.1-2.5-2.5V38.4c0-0.6-0.2-1.2-0.6-1.6c-3.2-3.7-4.9-8.7-4.1-14.1c1.1-7.9,7.6-14.3,15.5-15.2  c0.7-0.1,1.5-0.1,2.2-0.1c6,0,11.4,3,14.6,7.6c0.2,0.3,0.6,0.5,1,0.5c0.3,0,0.6-0.1,0.9-0.4c2.9-2.9,7-4.7,11.4-4.7  c0.5,0,1,0,1.6,0.1c7.5,0.7,13.7,6.7,14.6,14.2C81.6,30.7,79,36.2,74.7,39.6z"/><text x="0" y="115" fill="#000000" font-size="5px" font-weight="bold" font-family="'Helvetica Neue', Helvetica, Arial-Unicode, Arial, Sans-serif">Created by Cato Barend van Schalkwyk</text><text x="0" y="120" fill="#000000" font-size="5px" font-weight="bold" font-family="'Helvetica Neue', Helvetica, Arial-Unicode, Arial, Sans-serif">from the Noun Project</text></svg>